<mxfile host="app.diagrams.net" modified="2022-12-11T15:02:30.326Z" agent="5.0 (Macintosh; Intel Mac OS X 10_15_7) AppleWebKit/537.36 (KHTML, like Gecko) Chrome/108.0.0.0 Safari/537.36" version="20.6.2" etag="G13xns4C5iYwZTPabLEN" type="github">
  <diagram id="IrfJ8LZEPSQ8j6TZN60D" name="第 1 页">
    <mxGraphModel dx="696" dy="499" grid="1" gridSize="10" guides="1" tooltips="1" connect="1" arrows="1" fold="1" page="1" pageScale="1" pageWidth="827" pageHeight="1169" math="0" shadow="0">
      <root>
        <mxCell id="0" />
        <mxCell id="1" parent="0" />
        <mxCell id="ujtNDMzSKBabp6Rg3O61-1" value="&lt;div&gt;&lt;br&gt;&lt;/div&gt;" style="text;html=1;align=left;verticalAlign=middle;resizable=0;points=[];autosize=1;strokeColor=none;fillColor=none;" vertex="1" parent="1">
          <mxGeometry x="440" y="255" width="20" height="30" as="geometry" />
        </mxCell>
        <mxCell id="ujtNDMzSKBabp6Rg3O61-3" value="" style="shape=image;html=1;verticalAlign=top;verticalLabelPosition=bottom;labelBackgroundColor=#ffffff;imageAspect=0;aspect=fixed;image=https://cdn0.iconfinder.com/data/icons/google-material-design-3-0/48/ic_loop_48px-128.png;sketch=0;" vertex="1" parent="1">
          <mxGeometry x="355" y="280" width="80" height="80" as="geometry" />
        </mxCell>
        <mxCell id="ujtNDMzSKBabp6Rg3O61-5" value="&lt;b&gt;&lt;font style=&quot;font-size: 18px;&quot;&gt;JVM Engine&lt;/font&gt;&lt;/b&gt;" style="text;html=1;align=center;verticalAlign=middle;resizable=0;points=[];autosize=1;strokeColor=none;fillColor=none;" vertex="1" parent="1">
          <mxGeometry x="330" y="240" width="130" height="40" as="geometry" />
        </mxCell>
        <mxCell id="ujtNDMzSKBabp6Rg3O61-6" value="" style="rounded=0;whiteSpace=wrap;html=1;sketch=0;fontSize=18;strokeWidth=2;fillColor=#f5f5f5;fontColor=#333333;strokeColor=#666666;" vertex="1" parent="1">
          <mxGeometry x="520" y="145" width="110" height="310" as="geometry" />
        </mxCell>
        <mxCell id="ujtNDMzSKBabp6Rg3O61-7" value="PC: 0" style="rounded=1;whiteSpace=wrap;html=1;sketch=0;strokeWidth=2;fontSize=18;dashed=1;" vertex="1" parent="1">
          <mxGeometry x="525" y="154" width="100" height="40" as="geometry" />
        </mxCell>
        <mxCell id="ujtNDMzSKBabp6Rg3O61-8" value="PC: 1" style="rounded=1;whiteSpace=wrap;html=1;sketch=0;strokeWidth=2;fontSize=18;dashed=1;" vertex="1" parent="1">
          <mxGeometry x="525" y="204" width="100" height="40" as="geometry" />
        </mxCell>
        <mxCell id="ujtNDMzSKBabp6Rg3O61-9" value="PC: 2" style="rounded=1;whiteSpace=wrap;html=1;sketch=0;strokeWidth=2;fontSize=18;dashed=1;" vertex="1" parent="1">
          <mxGeometry x="525" y="254" width="100" height="40" as="geometry" />
        </mxCell>
        <mxCell id="ujtNDMzSKBabp6Rg3O61-10" value="PC: 3" style="rounded=1;whiteSpace=wrap;html=1;sketch=0;strokeWidth=2;fontSize=18;dashed=1;" vertex="1" parent="1">
          <mxGeometry x="525" y="304" width="100" height="40" as="geometry" />
        </mxCell>
        <mxCell id="ujtNDMzSKBabp6Rg3O61-11" value="PC: 4" style="rounded=1;whiteSpace=wrap;html=1;sketch=0;strokeWidth=2;fontSize=18;dashed=1;" vertex="1" parent="1">
          <mxGeometry x="525" y="354" width="100" height="40" as="geometry" />
        </mxCell>
        <mxCell id="ujtNDMzSKBabp6Rg3O61-12" value="PC: 5" style="rounded=1;whiteSpace=wrap;html=1;sketch=0;strokeWidth=2;fontSize=18;dashed=1;" vertex="1" parent="1">
          <mxGeometry x="525" y="404" width="100" height="40" as="geometry" />
        </mxCell>
        <mxCell id="ujtNDMzSKBabp6Rg3O61-13" value="" style="curved=1;endArrow=classic;html=1;rounded=0;fontSize=18;strokeWidth=2;sketch=1;" edge="1" parent="1" target="ujtNDMzSKBabp6Rg3O61-1">
          <mxGeometry width="50" height="50" relative="1" as="geometry">
            <mxPoint x="520" y="170" as="sourcePoint" />
            <mxPoint x="470" y="220" as="targetPoint" />
            <Array as="points">
              <mxPoint x="470" y="170" />
              <mxPoint x="500" y="220" />
            </Array>
          </mxGeometry>
        </mxCell>
        <mxCell id="ujtNDMzSKBabp6Rg3O61-14" value="" style="dashed=0;outlineConnect=0;html=1;align=center;labelPosition=center;verticalLabelPosition=bottom;verticalAlign=top;shape=mxgraph.webicons.java;gradientColor=#DFDEDE;sketch=0;strokeColor=#00CC00;strokeWidth=2;fontSize=18;" vertex="1" parent="1">
          <mxGeometry x="345.95" y="277.8" width="98.1" height="82.2" as="geometry" />
        </mxCell>
        <mxCell id="ujtNDMzSKBabp6Rg3O61-15" value="&lt;b&gt;Program Counter&lt;/b&gt;" style="text;html=1;align=center;verticalAlign=middle;resizable=0;points=[];autosize=1;strokeColor=none;fillColor=none;fontSize=18;" vertex="1" parent="1">
          <mxGeometry x="490" y="100" width="170" height="40" as="geometry" />
        </mxCell>
        <mxCell id="ujtNDMzSKBabp6Rg3O61-17" value="" style="rounded=0;whiteSpace=wrap;html=1;sketch=0;fontSize=18;strokeWidth=2;fillColor=#f5f5f5;fontColor=#333333;strokeColor=#666666;" vertex="1" parent="1">
          <mxGeometry x="170" y="145" width="110" height="310" as="geometry" />
        </mxCell>
        <mxCell id="ujtNDMzSKBabp6Rg3O61-18" value="&lt;b&gt;Stack&lt;/b&gt;" style="text;html=1;align=center;verticalAlign=middle;resizable=0;points=[];autosize=1;strokeColor=none;fillColor=none;fontSize=18;" vertex="1" parent="1">
          <mxGeometry x="190" y="455" width="70" height="40" as="geometry" />
        </mxCell>
        <mxCell id="ujtNDMzSKBabp6Rg3O61-19" value="&lt;span id=&quot;docs-internal-guid-bf1eb5b7-7fff-3892-7069-e3ab6ad54eb3&quot;&gt;&lt;span style=&quot;font-size: 16pt; font-family: &amp;quot;Source Code Pro&amp;quot;, monospace; color: rgb(0, 0, 255); background-color: transparent; font-weight: 700; font-variant-numeric: normal; font-variant-east-asian: normal; vertical-align: baseline;&quot;&gt;bipush&lt;/span&gt;&lt;/span&gt;" style="rounded=1;whiteSpace=wrap;html=1;sketch=0;strokeWidth=2;fontSize=18;dashed=1;" vertex="1" parent="1">
          <mxGeometry x="175" y="404" width="100" height="40" as="geometry" />
        </mxCell>
        <mxCell id="ujtNDMzSKBabp6Rg3O61-20" value="&lt;span id=&quot;docs-internal-guid-ab4792b6-7fff-8f93-a78d-b3672d529495&quot;&gt;&lt;span style=&quot;font-size: 16pt; font-family: &amp;quot;Source Code Pro&amp;quot;, monospace; color: rgb(0, 0, 255); background-color: transparent; font-weight: 700; font-variant-numeric: normal; font-variant-east-asian: normal; vertical-align: baseline;&quot;&gt;istore_1&lt;/span&gt;&lt;/span&gt;" style="rounded=1;whiteSpace=wrap;html=1;sketch=0;strokeWidth=2;fontSize=18;dashed=1;" vertex="1" parent="1">
          <mxGeometry x="175" y="354" width="100" height="40" as="geometry" />
        </mxCell>
        <mxCell id="ujtNDMzSKBabp6Rg3O61-21" value="&lt;span id=&quot;docs-internal-guid-d7edc2c1-7fff-ae62-b040-b5bfc6cb10ec&quot;&gt;&lt;span style=&quot;font-size: 16pt; font-family: &amp;quot;Source Code Pro&amp;quot;, monospace; color: rgb(0, 0, 255); background-color: transparent; font-weight: 700; font-variant-numeric: normal; font-variant-east-asian: normal; vertical-align: baseline;&quot;&gt;bipush&lt;/span&gt;&lt;/span&gt;" style="rounded=1;whiteSpace=wrap;html=1;sketch=0;strokeWidth=2;fontSize=18;dashed=1;" vertex="1" parent="1">
          <mxGeometry x="175" y="304" width="100" height="40" as="geometry" />
        </mxCell>
        <mxCell id="ujtNDMzSKBabp6Rg3O61-22" value="&lt;span id=&quot;docs-internal-guid-66d05ad8-7fff-c431-9a2d-2e91c0aa8d74&quot;&gt;&lt;span style=&quot;font-size: 16pt; font-family: &amp;quot;Source Code Pro&amp;quot;, monospace; color: rgb(0, 0, 255); background-color: transparent; font-weight: 700; font-variant-numeric: normal; font-variant-east-asian: normal; vertical-align: baseline;&quot;&gt;istore_2&lt;/span&gt;&lt;/span&gt;" style="rounded=1;whiteSpace=wrap;html=1;sketch=0;strokeWidth=2;fontSize=18;dashed=1;" vertex="1" parent="1">
          <mxGeometry x="175" y="255" width="100" height="40" as="geometry" />
        </mxCell>
        <mxCell id="ujtNDMzSKBabp6Rg3O61-23" value="&lt;font face=&quot;Source Code Pro, monospace&quot; color=&quot;#0000ff&quot;&gt;&lt;span style=&quot;font-size: 21.3333px;&quot;&gt;&lt;b&gt;...&lt;/b&gt;&lt;/span&gt;&lt;/font&gt;" style="rounded=1;whiteSpace=wrap;html=1;sketch=0;strokeWidth=2;fontSize=18;dashed=1;" vertex="1" parent="1">
          <mxGeometry x="175" y="204" width="100" height="40" as="geometry" />
        </mxCell>
        <mxCell id="ujtNDMzSKBabp6Rg3O61-24" value="" style="curved=1;endArrow=classic;html=1;rounded=0;sketch=1;strokeWidth=2;fontSize=18;" edge="1" parent="1" source="ujtNDMzSKBabp6Rg3O61-14">
          <mxGeometry width="50" height="50" relative="1" as="geometry">
            <mxPoint x="330" y="290" as="sourcePoint" />
            <mxPoint x="285.95" y="424" as="targetPoint" />
            <Array as="points">
              <mxPoint x="346" y="280" />
              <mxPoint x="330" y="280" />
              <mxPoint x="300" y="319" />
              <mxPoint x="340" y="420" />
            </Array>
          </mxGeometry>
        </mxCell>
        <mxCell id="ujtNDMzSKBabp6Rg3O61-25" value="" style="curved=1;endArrow=classic;html=1;rounded=0;sketch=1;strokeWidth=2;fontSize=18;dashed=1;" edge="1" parent="1">
          <mxGeometry width="50" height="50" relative="1" as="geometry">
            <mxPoint x="279" y="141" as="sourcePoint" />
            <mxPoint x="329" y="81" as="targetPoint" />
            <Array as="points">
              <mxPoint x="279" y="81" />
            </Array>
          </mxGeometry>
        </mxCell>
        <mxCell id="ujtNDMzSKBabp6Rg3O61-26" value="" style="curved=1;endArrow=classic;html=1;rounded=0;sketch=1;strokeWidth=2;fontSize=18;dashed=1;" edge="1" parent="1">
          <mxGeometry width="50" height="50" relative="1" as="geometry">
            <mxPoint x="130" y="80" as="sourcePoint" />
            <mxPoint x="170" y="140" as="targetPoint" />
            <Array as="points">
              <mxPoint x="170" y="80" />
            </Array>
          </mxGeometry>
        </mxCell>
        <mxCell id="ujtNDMzSKBabp6Rg3O61-27" value="&lt;b&gt;Push&lt;/b&gt;" style="text;html=1;align=center;verticalAlign=middle;resizable=0;points=[];autosize=1;strokeColor=none;fillColor=none;fontSize=18;" vertex="1" parent="1">
          <mxGeometry x="72" y="60" width="70" height="40" as="geometry" />
        </mxCell>
        <mxCell id="ujtNDMzSKBabp6Rg3O61-28" value="&lt;b&gt;Pop&lt;/b&gt;" style="text;html=1;align=center;verticalAlign=middle;resizable=0;points=[];autosize=1;strokeColor=none;fillColor=none;fontSize=18;" vertex="1" parent="1">
          <mxGeometry x="315" y="60" width="60" height="40" as="geometry" />
        </mxCell>
      </root>
    </mxGraphModel>
  </diagram>
</mxfile>
